<svg width="16px" height="16px" viewBox="0 0 16 16" version="1.1" xmlns="http://www.w3.org/2000/svg"><defs><linearGradient x1="26.02%" y1="2.12%" x2="88.96%" y2="80.42%" id="g1"><stop stop-color="#FF2B92" offset="0%"/><stop stop-color="#FF2B92" offset="100%"/></linearGradient></defs><g stroke="none" stroke-width="1" fill="none" fill-rule="evenodd"><path d="M8,1 C11.87,1 15,4.13 15,8 C15,11.87 11.87,15 8,15 C4.13,15 1,11.87 1,8 C1,4.13 4.13,1 8,1 Z M8,4.5 C7.67,4.5 7.45,4.88 7.00,5.65 L6.89,5.85 C6.76,6.07 6.70,6.18 6.60,6.25 C6.50,6.32 6.38,6.35 6.14,6.40 L5.91,6.45 C5.05,6.64 4.62,6.74 4.52,7.05 C4.42,7.37 4.71,7.70 5.30,8.37 L5.45,8.54 C5.62,8.73 5.70,8.82 5.74,8.94 C5.78,9.05 5.76,9.18 5.74,9.43 L5.71,9.66 C5.63,10.55 5.58,10.99 5.85,11.19 C6.12,11.38 6.52,11.20 7.33,10.84 L7.54,10.75 C7.76,10.65 7.88,10.60 8,10.60 C8.12,10.60 8.24,10.65 8.46,10.75 L8.67,10.84 C9.48,11.20 9.88,11.38 10.15,11.19 C10.42,10.99 10.37,10.55 10.29,9.66 L10.26,9.43 C10.24,9.18 10.22,9.05 10.26,8.94 C10.30,8.82 10.38,8.73 10.55,8.54 L10.70,8.37 C11.29,7.70 11.58,7.37 11.48,7.05 C11.38,6.74 10.95,6.64 10.09,6.45 L9.86,6.40 C9.62,6.35 9.50,6.32 9.40,6.25 C9.30,6.18 9.24,6.07 9.11,5.85 L8.99,5.65 C8.55,4.88 8.33,4.5 8,4.5 Z" fill="url(#g1)" fill-rule="nonzero"/></g></svg>
